<?xml version="1.0" encoding="utf-8"?>
<!-- Generator: Adobe Illustrator 25.4.1, SVG Export Plug-In . SVG Version: 6.00 Build 0)  -->
<svg version="1.1" id="Layer_1" xmlns="http://www.w3.org/2000/svg" xmlns:xlink="http://www.w3.org/1999/xlink" x="0px" y="0px"
	 viewBox="0 0 641.64 164.53" style="enable-background:new 0 0 641.64 164.53;" xml:space="preserve">
<style type="text/css">
	.st0{fill:#2E4053;}
	.st1{enable-background:new    ;}
	.st2{fill:#E85140;}
	.st3{fill:none;stroke:#2E4053;stroke-width:7.21;stroke-miterlimit:10;}
	.st4{fill:none;stroke:#2E4053;stroke-width:7.21;stroke-linecap:round;stroke-miterlimit:10;}
</style>
<path class="st0" d="M91.99,63.23L65.7,81.61c-1.27,0.89-2.12,2.26-2.35,3.79l-4.73,31.73c-0.14,0.92,0.89,1.55,1.65,1.02
	l26.29-18.38c1.27-0.89,2.12-2.26,2.35-3.79l4.73-31.73C93.78,63.33,92.75,62.7,91.99,63.23z M82.09,94.38
	c-2.04,3.29-6.36,4.31-9.65,2.27s-4.31-6.36-2.27-9.65s6.36-4.31,9.65-2.27C83.12,86.77,84.13,91.09,82.09,94.38z"/>
<path class="st0" d="M547.05,41.65h-1.04c-0.72,0-1.31,0.59-1.31,1.31v34.49l-28-35.3c-0.25-0.31-0.63-0.5-1.03-0.5h-1.73
	c-0.72,0-1.31,0.59-1.31,1.31v39.29c0,0.72,0.59,1.31,1.31,1.31h1.05c0.72,0,1.31-0.59,1.31-1.31v-34.5l28.1,35.31
	c0.25,0.31,0.63,0.49,1.03,0.49h1.62c0.72,0,1.31-0.59,1.31-1.31V42.96C548.36,42.23,547.78,41.65,547.05,41.65z"/>
<path class="st0" d="M575.33,42.4c-0.22-0.46-0.68-0.75-1.19-0.75h-1.1c-0.51,0-0.97,0.29-1.19,0.75l-18.34,39.29
	c-0.19,0.41-0.16,0.88,0.08,1.26c0.24,0.38,0.66,0.61,1.11,0.61h1.16c0.51,0,0.97-0.3,1.19-0.76l5.51-11.87h22.12l5.62,11.88
	c0.21,0.46,0.67,0.75,1.18,0.75h1.15c0.45,0,0.87-0.23,1.11-0.61s0.27-0.85,0.08-1.26L575.33,42.4z M564.31,67.27l9.31-20l9.31,20
	H564.31z"/>
<path class="st0" d="M627.95,42.25c-0.24-0.38-0.66-0.61-1.11-0.61h-1.15c-0.51,0-0.97,0.3-1.19,0.76l-16.58,35.55L591.2,42.4
	c-0.22-0.46-0.68-0.75-1.19-0.75h-1.15c-0.45,0-0.87,0.23-1.11,0.61s-0.27,0.85-0.08,1.26l18.49,39.29
	c0.22,0.46,0.68,0.75,1.19,0.75h1.16c0.51,0,0.97-0.3,1.19-0.75l18.33-39.29C628.22,43.11,628.19,42.63,627.95,42.25z"/>
<g class="st1">
	<path class="st0" d="M217.88,50.5c-2.61,0-4.65,1.08-6.11,3.25c-1.46,2.17-2.19,5.15-2.19,8.96c0,7.91,2.97,11.87,8.91,11.87
		c1.8,0,3.54-0.25,5.22-0.76c1.68-0.51,3.38-1.12,5.08-1.83v9.39c-3.39,1.52-7.22,2.28-11.5,2.28c-6.13,0-10.83-1.8-14.09-5.4
		c-3.27-3.6-4.9-8.8-4.9-15.6c0-4.25,0.79-7.99,2.37-11.22s3.86-5.7,6.83-7.44c2.97-1.73,6.47-2.6,10.48-2.6
		c4.39,0,8.58,0.97,12.58,2.9l-3.36,8.74c-1.5-0.71-3-1.31-4.5-1.8S219.6,50.5,217.88,50.5z"/>
	<path class="st0" d="M260.65,83.09l-2-7.7h-13.19l-2.05,7.7h-12.05l13.25-41.28h14.64l13.41,41.28H260.65z M256.38,66.28
		l-1.75-6.75c-0.41-1.5-0.9-3.44-1.49-5.82c-0.58-2.38-0.97-4.09-1.15-5.12c-0.17,0.96-0.5,2.53-0.99,4.72
		c-0.49,2.19-1.58,6.51-3.26,12.96H256.38z"/>
	<path class="st0" d="M302.62,70.61c0,2.55-0.64,4.81-1.92,6.79c-1.28,1.98-3.12,3.51-5.53,4.61c-2.41,1.1-5.23,1.65-8.47,1.65
		c-2.7,0-4.97-0.19-6.8-0.58s-3.74-1.05-5.72-2.01v-9.9c2.09,1.09,4.27,1.94,6.53,2.54c2.26,0.61,4.33,0.91,6.22,0.91
		c1.63,0,2.82-0.29,3.58-0.86c0.76-0.57,1.14-1.31,1.14-2.21c0-0.56-0.15-1.05-0.46-1.48c-0.31-0.42-0.8-0.85-1.47-1.28
		s-2.48-1.31-5.4-2.64c-2.65-1.22-4.63-2.4-5.96-3.54c-1.32-1.14-2.3-2.46-2.94-3.94c-0.64-1.48-0.96-3.23-0.96-5.26
		c0-3.79,1.36-6.74,4.08-8.86c2.72-2.12,6.46-3.18,11.22-3.18c4.2,0,8.49,0.98,12.86,2.95l-3.36,8.58c-3.8-1.76-7.07-2.64-9.83-2.64
		c-1.43,0-2.46,0.25-3.11,0.76c-0.65,0.51-0.97,1.13-0.97,1.88c0,0.81,0.41,1.53,1.24,2.16c0.82,0.64,3.06,1.8,6.71,3.49
		c3.5,1.59,5.93,3.3,7.29,5.13C301.94,65.53,302.62,67.83,302.62,70.61z"/>
	<path class="st0" d="M342.73,83.09H331.7V66.33h-12.75v16.76h-11.03V41.98h11.03v15.24h12.75V41.98h11.03V83.09z"/>
	<path class="st0" d="M361.34,83.09h-10.8V41.98h23.99v8.91h-13.19v7.84h12.16v8.91h-12.16V83.09z"/>
	<path class="st0" d="M380.23,83.09V41.98h10.97v32.14h15.63v8.97H380.23z"/>
	<path class="st0" d="M450.35,62.48c0,6.92-1.68,12.17-5.03,15.77c-3.35,3.6-8.26,5.4-14.72,5.4c-6.37,0-11.25-1.81-14.65-5.43
		c-3.4-3.62-5.1-8.88-5.1-15.8c0-6.84,1.69-12.07,5.07-15.68c3.38-3.61,8.29-5.41,14.73-5.41c6.46,0,11.36,1.79,14.69,5.37
		C448.69,50.29,450.35,55.55,450.35,62.48z M422.42,62.48c0,7.95,2.73,11.92,8.19,11.92c2.78,0,4.84-0.97,6.18-2.9
		c1.34-1.93,2.01-4.94,2.01-9.03c0-4.1-0.68-7.14-2.04-9.1c-1.36-1.96-3.39-2.94-6.1-2.94C425.17,50.45,422.42,54.46,422.42,62.48z"
		/>
	<path class="st0" d="M500.57,83.09H487.6l-3.89-17.91c-0.19-0.75-0.48-2.24-0.88-4.47c-0.4-2.23-0.69-4.1-0.87-5.6
		c-0.15,1.22-0.39,2.73-0.72,4.54s-0.66,3.47-0.99,4.99c-0.32,1.52-1.67,7.67-4.04,18.44h-12.97l-10.05-41.11h10.58l4.42,20.61
		c1,4.55,1.68,8.18,2.05,10.88c0.24-1.91,0.67-4.51,1.29-7.79c0.62-3.28,1.2-6,1.74-8.15l3.58-15.55h10.16l3.47,15.55
		c0.59,2.49,1.19,5.37,1.8,8.63c0.61,3.26,1.02,5.7,1.22,7.31c0.24-2.08,0.9-5.69,1.97-10.83l4.5-20.67h10.58L500.57,83.09z"/>
</g>
<g class="st1">
	<path class="st2" d="M224.47,112.29l-3.69,20.88c-0.07,0.43-0.21,0.54-0.68,0.54h-2.54c-0.47,0-0.61-0.11-0.82-0.5l-8.92-18.09
		l-2.76,15.76h2.9c0.47-0.04,0.54,0.07,0.47,0.5l-0.29,1.79c-0.11,0.43-0.21,0.54-0.68,0.54h-7.88c-0.47,0-0.54-0.11-0.47-0.54
		l0.32-1.79c0.07-0.43,0.21-0.54,0.68-0.5h1.86l3.19-18.59h-1.86c-0.47,0.04-0.54-0.07-0.47-0.5l0.32-1.86
		c0.07-0.43,0.21-0.54,0.68-0.54h5.09c0.47,0,0.61,0.11,0.82,0.5l8.74,18.05l2.86-15.65h-1.79c-0.47,0.04-0.54-0.07-0.47-0.5
		l0.29-1.86c0.11-0.43,0.21-0.54,0.68-0.54h6.73c0.47,0,0.54,0.11,0.47,0.54l-0.29,1.86c-0.11,0.43-0.21,0.54-0.68,0.5H224.47z"/>
	<path class="st2" d="M244.73,115.98c0.47,0,0.54,0.11,0.47,0.54l-2.44,13.71c-0.14,0.72,0.14,1,0.72,1c0.29,0,0.61-0.11,0.97-0.29
		c0.43-0.18,0.57-0.14,0.79,0.25l0.32,0.57c0.21,0.39,0.18,0.54-0.18,0.82c-1.07,0.79-2.51,1.54-3.94,1.54
		c-2.22,0-2.87-1.15-2.79-2.9c-1.4,1.93-3.37,2.9-5.69,2.9c-3.65,0-5.91-2.04-5.91-6.59c0-5.44,2.61-11.96,9.42-11.96
		c2.33,0,3.94,1.04,4.83,2.18l0.25-1.25c0.07-0.43,0.21-0.54,0.68-0.54H244.73z M239.29,127.19l1.22-6.66
		c-0.04-0.04-1.15-1.9-3.69-1.9c-4.55,0-5.73,4.94-5.73,8.42c0,2.54,0.86,4.01,3.51,4.01C236.46,131.05,238.86,129.76,239.29,127.19
		z"/>
	<path class="st2" d="M254.26,118.63l1.75,11.71c3.08-4.22,4.58-8.52,5.26-13.79c0.07-0.47,0.18-0.57,0.64-0.57h2.54
		c0.43,0,0.54,0.11,0.47,0.57c-0.68,5.55-4.08,12.96-8.02,17.01c-0.29,0.32-0.5,0.39-0.93,0.39h-2.86c-0.47,0-0.57-0.11-0.64-0.54
		l-2.29-14.07c-0.14-0.82-0.36-1.18-0.9-1.18c-0.29,0-0.61,0.07-1.04,0.25c-0.39,0.14-0.54,0.11-0.68-0.32l-0.25-0.64
		c-0.14-0.43-0.11-0.57,0.32-0.79c1.04-0.61,2.18-1.07,3.51-1.07C252.86,115.58,253.94,116.44,254.26,118.63z"/>
	<path class="st2" d="M273.56,115.98c0.47,0,0.54,0.11,0.47,0.54l-2.44,13.64c-0.14,0.75,0,1.11,0.57,1.11
		c0.36,0,0.68-0.11,1.07-0.29c0.43-0.18,0.57-0.14,0.75,0.25l0.29,0.57c0.21,0.39,0.18,0.54-0.18,0.82c-0.9,0.71-2.4,1.54-3.9,1.54
		c-2.33,0-3.04-1.29-2.69-3.4l2.04-11.89h-1.54c-0.47,0.04-0.54-0.07-0.47-0.5l0.36-1.86c0.07-0.43,0.21-0.54,0.68-0.54H273.56z
		 M269.69,110.57c0-1.61,1.4-2.76,2.72-2.76c1.68,0,2.47,1.11,2.47,2.36c0,1.68-1.25,2.76-2.79,2.76
		C270.59,112.93,269.69,111.86,269.69,110.57z"/>
	<path class="st2" d="M294.76,118.88l-2.18,12.61c-0.11,0.68-0.47,2.83-0.86,4.4c-1,3.98-3.83,6.41-8.77,6.41
		c-2.58,0-4.62-0.54-5.87-1.14c-0.43-0.18-0.47-0.32-0.29-0.75l0.64-1.83c0.18-0.43,0.32-0.46,0.72-0.29
		c1.18,0.57,2.79,0.97,4.41,0.97c2.9,0,4.8-1.25,5.51-5.05l0.5-2.69c-1.11,1.47-3.15,2.62-5.48,2.62c-3.58,0-6.05-1.83-6.05-6.45
		c0-6.09,2.97-12.1,9.35-12.1c2.29,0,3.8,0.82,4.94,2.22l0.21-1.29c0.11-0.43,0.21-0.54,0.68-0.54h4.69c0.47,0,0.54,0.11,0.47,0.54
		l-0.32,1.9c-0.07,0.43-0.21,0.54-0.68,0.5L294.76,118.88z M289.28,127.15l1.22-6.62c-0.04-0.04-1.22-1.9-3.83-1.9
		c-4.37,0-5.62,4.8-5.62,8.45c0,2.29,0.79,3.94,3.55,3.94C286.56,131.02,288.85,129.73,289.28,127.15z"/>
	<path class="st2" d="M315.89,115.98c0.47,0,0.54,0.11,0.47,0.54l-2.44,13.71c-0.14,0.72,0.14,1,0.72,1c0.29,0,0.61-0.11,0.97-0.29
		c0.43-0.18,0.57-0.14,0.79,0.25l0.32,0.57c0.21,0.39,0.18,0.54-0.18,0.82c-1.07,0.79-2.51,1.54-3.94,1.54
		c-2.22,0-2.87-1.15-2.79-2.9c-1.4,1.93-3.37,2.9-5.69,2.9c-3.65,0-5.91-2.04-5.91-6.59c0-5.44,2.61-11.96,9.42-11.96
		c2.33,0,3.94,1.04,4.83,2.18l0.25-1.25c0.07-0.43,0.21-0.54,0.68-0.54H315.89z M310.44,127.19l1.22-6.66
		c-0.04-0.04-1.15-1.9-3.69-1.9c-4.55,0-5.73,4.94-5.73,8.42c0,2.54,0.86,4.01,3.51,4.01C307.62,131.05,310.02,129.76,310.44,127.19
		z"/>
	<path class="st2" d="M326.56,118.91l-1.5,8.42c-0.14,0.82-0.21,1.5-0.21,2.08c0,1.22,0.39,1.86,1.68,1.86
		c0.9,0,1.61-0.18,2.15-0.39c0.39-0.14,0.54-0.11,0.72,0.32l0.32,1.22c0.14,0.43,0.07,0.57-0.32,0.75c-1.11,0.5-2.72,0.97-4.37,0.97
		c-3.55,0-4.37-1.61-4.37-3.65c0-0.93,0.18-1.97,0.36-2.94l1.58-8.63h-2.01c-0.47,0.04-0.54-0.07-0.47-0.5l0.29-1.9
		c0.11-0.43,0.21-0.54,0.68-0.54h2l0.82-4.83c0.11-0.43,0.21-0.54,0.68-0.54h2.87c0.47,0,0.54,0.11,0.47,0.54l-0.82,4.83h3.58
		c0.46,0,0.54,0.11,0.46,0.54l-0.32,1.9c-0.07,0.43-0.21,0.54-0.68,0.5H326.56z"/>
	<path class="st2" d="M338.88,134.13c-5.09,0-7.09-2.87-7.09-7.05c0-5.48,3.19-11.5,9.88-11.5c3.76,0,5.59,2.04,5.59,4.76
		c-0.04,4.69-4.69,6.16-8.99,6.16c-0.79,0-1.58-0.07-2.29-0.14c-0.04,0.29-0.04,0.5-0.04,0.79c0,2.26,1.18,3.98,3.98,3.98
		c1.83,0,3.08-0.47,4.33-1.22c0.39-0.21,0.54-0.18,0.75,0.21l0.61,1.11c0.25,0.39,0.21,0.54-0.14,0.82
		C343.64,133.38,341.24,134.13,338.88,134.13z M336.26,123.71c0.36,0.07,0.82,0.14,1.36,0.14c2.61,0,5.52-0.89,5.52-3.33
		c0-1.25-0.97-1.86-2.29-1.86C338.23,118.66,336.69,121.03,336.26,123.71z"/>
	<path class="st2" d="M356.78,123.96c0-7.02,4.37-15.18,13.72-15.18c2.4,0,5.3,0.79,7.2,1.86c0.39,0.21,0.47,0.36,0.36,0.82
		l-0.79,4.48c-0.07,0.43-0.21,0.54-0.68,0.54h-1.93c-0.47,0-0.54-0.11-0.47-0.54l0.57-2.54c-0.68-0.54-2.36-1.47-4.73-1.47
		c-6.73,0-8.85,6.16-8.85,11.67c0,4.26,1.79,7.38,6.52,7.38c2.33,0,3.65-0.61,4.15-1.04l0.32-2.33c0.07-0.47,0.18-0.57,0.64-0.57
		h1.97c0.47,0,0.54,0.11,0.47,0.54l-0.79,4.48c-0.11,0.47-0.21,0.61-0.61,0.79c-2.33,1.04-4.76,1.29-6.73,1.29
		C359.97,134.13,356.78,130.16,356.78,123.96z"/>
	<path class="st2" d="M396.39,115.98c0.47,0,0.54,0.11,0.47,0.54l-2.44,13.71c-0.14,0.72,0.14,1,0.72,1c0.29,0,0.61-0.11,0.97-0.29
		c0.43-0.18,0.57-0.14,0.79,0.25l0.32,0.57c0.21,0.39,0.18,0.54-0.18,0.82c-1.07,0.79-2.51,1.54-3.94,1.54
		c-2.22,0-2.87-1.15-2.79-2.9c-1.4,1.93-3.37,2.9-5.69,2.9c-3.65,0-5.91-2.04-5.91-6.59c0-5.44,2.61-11.96,9.42-11.96
		c2.33,0,3.94,1.04,4.83,2.18l0.25-1.25c0.07-0.43,0.21-0.54,0.68-0.54H396.39z M390.95,127.19l1.22-6.66
		c-0.04-0.04-1.15-1.9-3.69-1.9c-4.55,0-5.73,4.94-5.73,8.42c0,2.54,0.86,4.01,3.51,4.01C388.12,131.05,390.52,129.76,390.95,127.19
		z"/>
	<path class="st2" d="M409.24,129.12c0-1.5-1.32-2.01-3.19-2.62c-2.33-0.75-5.01-1.5-5.01-5.16c0-3.72,3.04-5.77,7.09-5.77
		c4.19,0,6.09,2.15,5.91,5.08c0,0.47-0.11,0.57-0.57,0.57h-2.04c-0.46,0-0.57-0.11-0.57-0.57c-0.04-1.4-0.75-2.33-3.08-2.33
		c-1.58,0-2.94,0.54-2.94,2.11c0,1.4,1.43,1.94,3.29,2.58c2.36,0.82,5.01,1.83,5.01,5.19c0,3.98-3.15,5.91-7.49,5.91
		c-3.62,0-6.3-1.36-6.34-5.09c0-0.46,0.11-0.57,0.54-0.57h2.01c0.47,0,0.57,0.11,0.64,0.57c0.18,1.5,0.9,2.4,3.44,2.4
		C407.56,131.45,409.24,131.02,409.24,129.12z"/>
	<path class="st2" d="M420.88,109.85h-1.54c-0.46,0.04-0.54-0.07-0.46-0.5l0.32-1.83c0.07-0.43,0.21-0.54,0.68-0.54h4.98
		c0.47,0,0.54,0.11,0.47,0.54l-1.93,11.03c1.79-2.11,3.9-2.97,6.2-2.97c2.94,0,4.55,1.43,4.55,4.3c0,0.54-0.14,1.76-0.32,2.62
		l-1.61,7.63c-0.14,0.75-0.04,1.11,0.54,1.11c0.36,0,0.68-0.11,1.07-0.29c0.43-0.18,0.57-0.14,0.75,0.25l0.29,0.57
		c0.21,0.39,0.18,0.54-0.18,0.82c-0.9,0.72-2.4,1.54-3.9,1.54c-2.33,0-3.08-1.29-2.69-3.4l1.5-7.27c0.14-0.75,0.29-1.47,0.29-2.15
		c0-1.33-0.61-2.19-2.44-2.19c-2.4,0-4.44,1.58-4.8,3.51l-1.83,10.53c-0.07,0.43-0.21,0.54-0.68,0.54h-2.83
		c-0.47,0-0.54-0.11-0.47-0.54L420.88,109.85z"/>
	<path class="st2" d="M458.23,107.09c0.39-0.07,0.5,0.04,0.43,0.43l-4.05,22.6c-0.14,0.75,0.04,1.11,0.61,1.11
		c0.36,0,0.68-0.11,1.07-0.29c0.43-0.18,0.57-0.14,0.75,0.25l0.29,0.57c0.21,0.39,0.18,0.54-0.18,0.82c-0.89,0.72-2.4,1.54-3.9,1.54
		c-2.33,0-3.04-1.29-2.69-3.4l3.58-20.27c-1.18-0.57-2.76-0.97-4.23-0.97c-2.22,0-3.51,1.29-3.94,3.87l-0.47,2.61h4.3
		c0.46,0,0.54,0.11,0.46,0.54l-0.29,1.86c-0.11,0.43-0.21,0.54-0.68,0.5h-4.3l-3.08,17.4c-0.5,2.94-1.4,5.98-6.41,5.98
		c-1.43,0-2.9-0.36-3.83-0.82c-0.43-0.21-0.47-0.36-0.29-0.75l0.61-1.43c0.18-0.39,0.32-0.47,0.75-0.29
		c0.54,0.29,1.36,0.57,2.26,0.57c2.18,0,2.54-1.29,3.01-3.87l2.97-16.79h-2.18c-0.46,0.04-0.54-0.07-0.46-0.5l0.29-1.86
		c0.11-0.43,0.21-0.54,0.68-0.54h2.18l0.61-3.51c0.54-2.94,1.97-5.98,7.38-5.98c1.75,0,3.69,0.43,5.37,1.15L458.23,107.09z"/>
	<path class="st2" d="M466.72,134.13c-4.23,0-6.77-2.44-6.77-7.13c0-6.45,3.51-11.42,10.1-11.42c2.69,0,7.13,1.04,7.13,7.09
		C477.17,129.48,473.38,134.13,466.72,134.13z M469.44,118.7c-4.48,0-5.34,5.16-5.34,8.31c0,2.33,0.79,4.15,3.22,4.15
		c4.44,0,5.62-5.41,5.62-8.42C472.95,119.88,471.73,118.7,469.44,118.7z"/>
	<path class="st2" d="M485.73,118.7l0.93,11.64c2.79-4.19,4.19-8.52,4.87-13.79c0.07-0.47,0.18-0.57,0.64-0.57h4.01
		c0.46,0,0.57,0.11,0.64,0.57l1.4,13.79c2.86-4.44,3.94-8.52,4.58-13.79c0.07-0.47,0.18-0.57,0.64-0.57h2.44
		c0.43,0,0.54,0.11,0.46,0.57c-0.57,5.12-3.44,12.93-7.31,17.01c-0.29,0.32-0.5,0.39-0.93,0.39h-2.69c-0.47,0-0.57-0.11-0.61-0.57
		l-1.15-12.46c-1.15,4.51-3.33,9.63-6.2,12.64c-0.29,0.32-0.5,0.39-0.93,0.39h-2.69c-0.47,0-0.57-0.11-0.65-0.57l-1.47-14.18
		c-0.07-0.82-0.36-1.18-0.9-1.18c-0.29,0-0.61,0.11-1.04,0.29c-0.39,0.18-0.54,0.11-0.68-0.32l-0.21-0.54
		c-0.14-0.43-0.11-0.57,0.32-0.79c1.04-0.61,2.18-1.07,3.51-1.07C484.48,115.58,485.59,116.48,485.73,118.7z"/>
</g>
<path class="st2" d="M39.03,21.1l-8.53-0.95l-0.95-8.53c-0.03-0.24-0.23-0.43-0.48-0.43s-0.45,0.19-0.48,0.43l-0.95,8.53l-8.53,0.95
	c-0.24,0.03-0.43,0.23-0.43,0.48s0.19,0.45,0.43,0.48l8.53,0.95l0.95,8.53c0.03,0.24,0.23,0.43,0.48,0.43s0.45-0.19,0.48-0.43
	l0.95-8.53l8.53-0.95c0.24-0.03,0.43-0.23,0.43-0.48C39.46,21.33,39.28,21.13,39.03,21.1z"/>
<g>
	<path class="st2" d="M147.96,23.19l-6.43-5.41l-16.7,11.91c-0.49,0.35-0.61,1.04-0.26,1.53c0.21,0.3,0.55,0.46,0.89,0.46
		c0.22,0,0.44-0.07,0.63-0.2l15.32-10.92l6.38,5.36l13.83-9.04l-0.21,0.84c-0.15,0.59,0.21,1.18,0.8,1.33
		c0.09,0.02,0.18,0.03,0.26,0.03c0.49,0,0.94-0.33,1.06-0.83l1.16-4.69l-4.77-0.82c-0.59-0.1-1.16,0.3-1.27,0.9
		c-0.1,0.6,0.3,1.16,0.9,1.27l0.86,0.15L147.96,23.19"/>
</g>
<circle class="st3" cx="76.13" cy="90.69" r="62.65"/>
<g>
	<line class="st4" x1="34.09" y1="90.69" x2="15.5" y2="90.69"/>
	<line class="st4" x1="137.18" y1="90.69" x2="118.59" y2="90.69"/>
</g>
<g>
	<line class="st4" x1="76.13" y1="48.44" x2="76.13" y2="29.85"/>
	<line class="st4" x1="76.13" y1="151.53" x2="76.13" y2="132.94"/>
</g>
</svg>
